<svg preserveAspectRatio="none" overflow="visible" style="display: block;" width="35.9991" height="37.271" viewBox="0 0 35.9991 37.271" fill="none" xmlns="http://www.w3.org/2000/svg">
<g id="Group">
<path id="Vector" d="M33.2859 11.1207C34.7845 10.4999 35.4961 8.78182 34.8754 7.28322C34.2546 5.78461 32.5365 5.07298 31.0379 5.69373C29.5393 6.31449 28.8277 8.03257 29.4484 9.53118C30.0692 11.0298 31.7872 11.7414 33.2859 11.1207Z" fill="#FC6441"/>
<path id="Vector_2" d="M32.1543 25.1627C33.7763 25.1627 35.0912 23.8477 35.0912 22.2257C35.0912 20.6037 33.7763 19.2887 32.1543 19.2887C30.5322 19.2887 29.2173 20.6037 29.2173 22.2257C29.2173 23.8477 30.5322 25.1627 32.1543 25.1627Z" fill="#FC6441"/>
<path id="Vector_3" d="M25.016 7.71583C23.4745 4.7703 21.2412 3.21862 20.3722 2.62968C17.1459 0.443808 13.9908 0.176531 12.7428 0.0864887C10.8649 -0.0487785 7.92675 -0.260637 5.00282 1.52391C2.81084 2.86171 1.70548 4.66317 1.35407 5.28328C-0.110645 7.86823 -0.0607372 10.3792 0.048047 11.5221C0.0557882 11.615 0.0657771 11.7072 0.0780001 11.7989C0.0780001 11.7995 0.0779953 11.8001 0.078199 11.8005C0.442239 14.5212 2.7707 16.6198 5.59094 16.6198C8.66379 16.6198 11.1548 14.1288 11.1548 11.056C11.1548 8.30233 9.15393 6.01746 6.52722 5.57214C6.46264 5.2193 6.44859 4.74995 6.66147 4.28812C6.75212 4.09154 7.06035 3.5132 8.20951 3.07195C9.83923 2.44613 12.1056 2.50071 14.1804 3.51419C16.4302 4.61324 17.5588 6.40188 18.161 7.38419C19.5557 9.6595 19.7836 11.8095 19.9301 13.3549C19.9898 13.9838 20.2073 16.6531 19.2666 19.9891C18.3024 23.4089 16.6403 25.687 15.286 27.5078C14.4949 28.5714 13.0058 30.4232 10.7527 32.373C7.1347 35.5037 4.35542 36.4566 4.56076 37.0171C4.7657 37.5761 7.72385 37.1487 10.1998 36.3536C10.9171 36.1232 14.3731 34.9695 18.1608 31.7097C19.7873 30.3097 22.6216 27.8173 24.574 23.5274C26.1764 20.0064 26.4046 16.989 26.4537 16.1193C26.5684 14.0848 26.7417 11.0132 25.016 7.71583Z" fill="#FC6441"/>
</g>
</svg>
